<svg width="1100" height="700" viewBox="0 0 1100 700" fill="none" xmlns="http://www.w3.org/2000/svg">
<rect x="39" y="12" width="1029" height="676" rx="25" stroke="#242424" stroke-width="20"/>
<line x1="43" y1="141" x2="1058" y2="141" stroke="#242424" stroke-width="20"/>
<circle cx="104" cy="76" r="19" fill="#242424"/>
<circle cx="159" cy="76" r="19" fill="#242424"/>
<circle cx="214" cy="76" r="19" fill="#242424"/>
<g filter="url(#filter0_i_142_2)">
<circle cx="553" cy="299" r="94" fill="#242424"/>
</g>
<path d="M518 264L588.711 334.711" stroke="#434343" stroke-width="15" stroke-linecap="round"/>
<path d="M588.711 264L518 334.711" stroke="#434343" stroke-width="15" stroke-linecap="round"/>
<path d="M451.6 601C449.067 601 446.933 600.133 445.2 598.4C443.467 596.667 442.6 594.533 442.6 592V564.8H381.6C378.4 564.8 375.667 563.733 373.4 561.6C371.133 559.333 370 556.6 370 553.4V551.6C370 548.8 370.8 546.4 372.4 544.4L435.2 464.2C436.267 462.733 437.667 461.6 439.4 460.8C441.267 459.867 443.2 459.4 445.2 459.4H449.2C452.667 459.4 455.467 460.533 457.6 462.8C459.733 464.933 460.8 467.667 460.8 471V548.6H476C478.267 548.6 480.2 549.4 481.8 551C483.4 552.6 484.2 554.533 484.2 556.8C484.2 559.067 483.4 561 481.8 562.6C480.2 564.067 478.267 564.8 476 564.8H460.8V592C460.8 594.533 459.867 596.667 458 598.4C456.267 600.133 454.133 601 451.6 601ZM389.4 548.6H442.6V480L389.4 548.6ZM553.386 602C535.786 602 522.319 595.533 512.986 582.6C503.786 569.667 499.186 552.2 499.186 530.2C499.186 508.2 503.786 490.733 512.986 477.8C522.319 464.867 535.786 458.4 553.386 458.4C570.853 458.4 584.253 464.867 593.586 477.8C602.919 490.733 607.586 508.2 607.586 530.2C607.586 552.2 602.919 569.667 593.586 582.6C584.253 595.533 570.853 602 553.386 602ZM553.386 585.2C564.986 585.2 573.853 580.333 579.986 570.6C586.253 560.867 589.386 547.4 589.386 530.2C589.386 513.133 586.253 499.733 579.986 490C573.853 480.267 564.986 475.4 553.386 475.4C541.786 475.4 532.853 480.267 526.586 490C520.453 499.733 517.386 513.133 517.386 530.2C517.386 547.4 520.453 560.867 526.586 570.6C532.853 580.333 541.786 585.2 553.386 585.2ZM702.772 601C700.239 601 698.105 600.133 696.372 598.4C694.639 596.667 693.772 594.533 693.772 592V564.8H632.772C629.572 564.8 626.839 563.733 624.572 561.6C622.305 559.333 621.172 556.6 621.172 553.4V551.6C621.172 548.8 621.972 546.4 623.572 544.4L686.372 464.2C687.439 462.733 688.839 461.6 690.572 460.8C692.439 459.867 694.372 459.4 696.372 459.4H700.372C703.839 459.4 706.639 460.533 708.772 462.8C710.905 464.933 711.972 467.667 711.972 471V548.6H727.172C729.439 548.6 731.372 549.4 732.972 551C734.572 552.6 735.372 554.533 735.372 556.8C735.372 559.067 734.572 561 732.972 562.6C731.372 564.067 729.439 564.8 727.172 564.8H711.972V592C711.972 594.533 711.039 596.667 709.172 598.4C707.439 600.133 705.305 601 702.772 601ZM640.572 548.6H693.772V480L640.572 548.6Z" fill="#434343"/>
<defs>
<filter id="filter0_i_142_2" x="459" y="205" width="208" height="208" filterUnits="userSpaceOnUse" color-interpolation-filters="sRGB">
<feFlood flood-opacity="0" result="BackgroundImageFix"/>
<feBlend mode="normal" in="SourceGraphic" in2="BackgroundImageFix" result="shape"/>
<feColorMatrix in="SourceAlpha" type="matrix" values="0 0 0 0 0 0 0 0 0 0 0 0 0 0 0 0 0 0 127 0" result="hardAlpha"/>
<feMorphology radius="2" operator="erode" in="SourceAlpha" result="effect1_innerShadow_142_2"/>
<feOffset dx="20" dy="20"/>
<feGaussianBlur stdDeviation="10"/>
<feComposite in2="hardAlpha" operator="arithmetic" k2="-1" k3="1"/>
<feColorMatrix type="matrix" values="0 0 0 0 0 0 0 0 0 0 0 0 0 0 0 0 0 0 0.25 0"/>
<feBlend mode="normal" in2="shape" result="effect1_innerShadow_142_2"/>
</filter>
</defs>
</svg>
