<?xml version="1.0" encoding="UTF-8"?>
<svg xmlns="http://www.w3.org/2000/svg" id="Ebene_2" viewBox="0 0 221.07 88.43">
  <g id="Ebene_1-2">
    <path d="m103.05,13.62c.52-.38,1.18-.57,1.98-.57.71,0,1.34.21,1.89.62.55.41.95.99,1.19,1.73l3.07-.83c-.33-1.36-1.04-2.44-2.13-3.23-1.09-.79-2.41-1.18-3.98-1.18-1.4,0-2.6.31-3.62.94-1.01.63-1.8,1.49-2.35,2.58s-.83,2.35-.84,3.77c0,1.39.28,2.63.81,3.73.53,1.1,1.3,1.97,2.31,2.6,1.01.63,2.22.95,3.64.95,1.54,0,2.85-.38,3.91-1.13,1.06-.75,1.81-1.83,2.24-3.24l-3.14-.7c-.24.71-.59,1.25-1.07,1.62-.47.38-1.12.56-1.94.56-1.16,0-2.03-.4-2.62-1.21-.59-.81-.88-1.87-.88-3.18,0-.84.12-1.6.37-2.26.25-.66.63-1.19,1.15-1.57Z" style="fill:#fff;"></path>
    <path d="m123.61,11.1c-1.03-.62-2.24-.93-3.63-.93s-2.55.31-3.58.92c-1.03.61-1.84,1.47-2.42,2.56-.58,1.09-.87,2.36-.87,3.81s.28,2.68.85,3.78c.57,1.1,1.37,1.95,2.4,2.58s2.24.93,3.62.93,2.59-.31,3.62-.93c1.03-.62,1.83-1.47,2.41-2.57.58-1.1.86-2.36.86-3.79s-.29-2.68-.86-3.78-1.37-1.95-2.4-2.58Zm-.9,9.52c-.6.82-1.51,1.23-2.74,1.23s-2.08-.4-2.69-1.2-.91-1.86-.91-3.2c0-.87.13-1.63.38-2.29.25-.66.65-1.18,1.18-1.55.53-.37,1.21-.56,2.04-.56,1.21,0,2.12.4,2.72,1.2s.91,1.86.91,3.2-.3,2.35-.9,3.17Z" style="fill:#fff;"></path>
    <path d="m145.13,10.2c-.92,0-1.76.2-2.51.61-.71.39-1.28.92-1.71,1.6-.34-.64-.81-1.16-1.43-1.55-.69-.44-1.56-.66-2.59-.66-.94,0-1.78.21-2.54.62-.58.32-1.07.73-1.46,1.23v-1.5h-2.72v13.81h3.11v-8.5c0-.86.24-1.56.71-2.1.47-.54,1.1-.81,1.89-.81s1.45.27,1.92.81c.47.54.7,1.29.7,2.25v8.35h3.07v-8.5c0-.6.11-1.13.34-1.57.23-.44.54-.77.93-1,.39-.23.83-.34,1.33-.34.8,0,1.44.27,1.91.8s.7,1.27.7,2.22v8.39h3.08v-9.17c0-1.49-.41-2.7-1.22-3.61-.81-.92-1.98-1.37-3.51-1.37Z" style="fill:#fff;"></path>
    <path d="m163.61,11.12c-.96-.63-2.09-.95-3.39-.95s-2.42.32-3.31.95c-.18.13-.35.28-.52.43v-1h-2.72v19.94h3.11v-6.85c.06.04.11.09.17.14.91.64,2.04.96,3.39.96,1.27,0,2.38-.32,3.32-.96.95-.64,1.68-1.51,2.2-2.61s.78-2.34.78-3.72-.26-2.64-.79-3.74-1.27-1.96-2.23-2.6Zm-.61,8.63c-.25.69-.64,1.23-1.16,1.63-.52.4-1.18.6-1.98.6s-1.49-.19-2-.57-.88-.91-1.11-1.59-.35-1.47-.35-2.37.12-1.69.35-2.37c.23-.68.6-1.21,1.09-1.59.49-.38,1.13-.57,1.92-.57.83,0,1.51.2,2.05.61s.93.95,1.19,1.64c.25.69.38,1.45.38,2.28s-.12,1.61-.38,2.29Z" style="fill:#fff;"></path>
    <path d="m179.28,17.64c0,.84-.09,1.53-.28,2.07-.19.55-.44.97-.75,1.29-.31.31-.66.53-1.04.66s-.77.19-1.16.19c-.73,0-1.32-.16-1.75-.47-.43-.31-.75-.72-.97-1.21-.22-.49-.36-1-.42-1.53s-.09-1.01-.09-1.44v-6.65h-3.12v7.71c0,.33.03.77.08,1.3s.18,1.1.36,1.69c.19.6.48,1.16.87,1.69.39.53.92.96,1.59,1.3s1.51.51,2.53.51c1.3,0,2.39-.28,3.27-.85.48-.3.89-.67,1.24-1.09v1.54h2.72v-13.81h-3.09v7.1Z" style="fill:#fff;"></path>
    <path d="m190.5,6.71h-3.07v3.84h-2.51v2.42h2.51v5.75c0,.78,0,1.49.03,2.11.02.62.18,1.23.5,1.83.36.66.88,1.14,1.57,1.44.69.3,1.47.46,2.35.49.87.02,1.77-.05,2.68-.22v-2.58c-.86.13-1.63.16-2.3.1-.67-.06-1.16-.35-1.47-.86-.16-.26-.25-.6-.26-1.02-.01-.42-.02-.9-.02-1.46v-5.57h4.05v-2.42h-4.05v-3.84Z" style="fill:#fff;"></path>
    <path d="m207.09,11.17c-1-.67-2.22-1-3.65-1-1.36,0-2.55.31-3.58.92-1.03.61-1.84,1.48-2.42,2.59-.58,1.11-.87,2.42-.87,3.93,0,1.4.3,2.63.89,3.71.59,1.07,1.42,1.91,2.47,2.52,1.06.61,2.28.91,3.68.91s2.55-.35,3.65-1.04c1.1-.69,1.92-1.66,2.45-2.9l-3.04-.92c-.3.64-.72,1.13-1.27,1.46s-1.2.5-1.96.5c-1.18,0-2.07-.38-2.69-1.15-.48-.6-.77-1.4-.87-2.39h9.99c.12-1.65-.06-3.09-.55-4.31-.49-1.22-1.23-2.16-2.23-2.83Zm-3.52,1.69c1.12,0,1.93.35,2.45,1.04.37.49.6,1.19.71,2.08h-6.77c.14-.79.39-1.45.79-1.95.61-.78,1.55-1.17,2.81-1.17Z" style="fill:#fff;"></path>
    <path d="m219.75,10.49c-.44.03-.86.11-1.27.24-.41.13-.79.31-1.13.54-.4.25-.74.56-1.03.94-.13.17-.25.36-.35.55v-2.22h-2.72v13.81h3.09v-7.02c0-.53.06-1.02.19-1.48.13-.46.33-.86.59-1.22.27-.36.62-.65,1.04-.88.43-.26.91-.4,1.44-.45.53-.04,1,0,1.41.12v-2.88c-.41-.07-.83-.09-1.27-.06Z" style="fill:#fff;"></path>
    <polygon points="100.01 42.18 106.58 42.18 99.27 52.87 99.27 53.29 111.07 53.29 111.07 50.6 104.09 50.6 111.38 39.92 111.38 39.49 100.01 39.49 100.01 42.18" style="fill:#fff;"></polygon>
    <path d="m123.96,40.11c-1-.67-2.22-1-3.65-1-1.36,0-2.55.31-3.58.92-1.03.61-1.84,1.48-2.42,2.59-.58,1.11-.87,2.42-.87,3.93,0,1.4.3,2.63.89,3.71.59,1.07,1.42,1.91,2.47,2.52,1.06.61,2.28.91,3.68.91s2.55-.35,3.65-1.04c1.1-.69,1.92-1.66,2.45-2.9l-3.04-.92c-.3.64-.72,1.13-1.27,1.46s-1.2.5-1.96.5c-1.18,0-2.07-.38-2.69-1.15-.48-.6-.77-1.4-.87-2.39h9.99c.12-1.65-.06-3.09-.55-4.31-.49-1.22-1.23-2.16-2.23-2.83Zm-3.52,1.69c1.12,0,1.93.35,2.45,1.04.37.49.6,1.19.71,2.08h-6.77c.14-.79.39-1.45.79-1.95.61-.78,1.55-1.17,2.81-1.17Z" style="fill:#fff;"></path>
    <path d="m141.98,42.59c-.19-.6-.48-1.16-.87-1.69-.39-.53-.92-.96-1.58-1.3-.67-.34-1.51-.51-2.53-.51-1.3,0-2.39.28-3.27.85-.48.31-.89.67-1.24,1.09v-1.54h-2.75v13.81h3.12v-7.1c0-.84.09-1.54.28-2.08.19-.54.44-.97.75-1.28.31-.31.66-.53,1.04-.66.38-.13.77-.19,1.16-.19.73,0,1.32.16,1.75.47.43.32.75.72.97,1.21.22.49.36,1,.42,1.53s.09,1.01.09,1.44v6.65h3.12v-7.71c0-.33-.03-.77-.08-1.3-.06-.53-.18-1.1-.36-1.69Z" style="fill:#fff;"></path>
    <path d="m150.84,35.65h-3.07v3.84h-2.51v2.42h2.51v5.75c0,.79,0,1.49.03,2.11.02.62.18,1.23.5,1.83.36.66.88,1.14,1.57,1.44.69.3,1.47.46,2.35.49.87.02,1.77-.05,2.68-.22v-2.58c-.86.13-1.63.16-2.3.1-.67-.06-1.16-.34-1.47-.86-.16-.26-.25-.61-.26-1.02-.01-.42-.02-.9-.02-1.46v-5.57h4.05v-2.42h-4.05v-3.84Z" style="fill:#fff;"></path>
    <path d="m165.43,39.43c-.44.03-.86.11-1.27.24-.41.13-.79.31-1.13.54-.4.25-.74.56-1.03.94-.13.17-.25.36-.35.55v-2.22h-2.72v13.81h3.09v-7.02c0-.53.06-1.02.19-1.48.13-.46.33-.86.59-1.22.27-.36.62-.65,1.04-.88.43-.26.91-.4,1.44-.45.53-.04,1,0,1.41.12v-2.88c-.41-.07-.83-.09-1.27-.06Z" style="fill:#fff;"></path>
    <path d="m179.5,46.58c0,.83-.09,1.53-.28,2.07-.19.54-.44.97-.75,1.28s-.66.53-1.04.66-.77.19-1.16.19c-.73,0-1.32-.16-1.75-.47-.43-.32-.75-.72-.97-1.21-.22-.49-.36-1-.42-1.53-.06-.53-.09-1.01-.09-1.44v-6.65h-3.12v7.71c0,.33.03.77.08,1.3.06.53.18,1.1.36,1.69s.48,1.16.87,1.69c.39.53.92.96,1.59,1.3s1.51.51,2.53.51c1.3,0,2.39-.28,3.27-.85.48-.3.89-.67,1.24-1.09v1.54h2.72v-13.81h-3.09v7.1Z" style="fill:#fff;"></path>
    <path d="m204.64,40.52c-.81-.92-1.98-1.37-3.51-1.37-.92,0-1.76.2-2.51.61-.71.39-1.28.92-1.71,1.6-.34-.64-.81-1.16-1.43-1.55-.69-.44-1.56-.66-2.59-.66-.94,0-1.78.21-2.54.62-.58.32-1.07.73-1.46,1.23v-1.5h-2.72v13.81h3.11v-8.5c0-.86.24-1.56.71-2.1.47-.54,1.1-.81,1.89-.81s1.45.27,1.92.81c.47.54.7,1.29.7,2.25v8.35h3.07v-8.5c0-.6.11-1.13.34-1.57.23-.44.54-.77.93-1,.39-.23.83-.34,1.33-.34.8,0,1.44.27,1.91.8s.7,1.27.7,2.22v8.39h3.08v-9.17c0-1.49-.41-2.7-1.22-3.61Z" style="fill:#fff;"></path>
    <path d="m105.89,72.5c-.5-.25-1.18-.48-2.06-.7-.74-.19-1.32-.36-1.72-.52-.4-.16-.68-.33-.83-.5s-.23-.39-.23-.65c0-.45.21-.81.63-1.08s.97-.4,1.64-.38c.71.01,1.31.18,1.77.5.47.33.74.77.83,1.32l1.32-.24c-.06-.55-.27-1.03-.62-1.45s-.8-.74-1.37-.97-1.21-.35-1.92-.35-1.34.11-1.88.34c-.54.23-.96.54-1.27.95s-.46.88-.46,1.42c0,.45.1.82.31,1.13s.55.58,1.04.81,1.16.47,2.02.7c.8.22,1.41.4,1.81.56.4.16.67.33.8.51s.2.42.2.72c0,.52-.21.93-.62,1.23s-.98.45-1.7.45-1.36-.16-1.86-.48-.82-.75-.96-1.29l-1.32.22c.16.85.6,1.52,1.32,2s1.63.72,2.75.72,2.08-.26,2.75-.77c.66-.51,1-1.22,1-2.11,0-.49-.11-.91-.32-1.24s-.57-.62-1.06-.87Z" style="fill:#fff;"></path>
    <path d="m115.34,65.11h-1.28v2.64h-2.03v1.11h2.03v4.95c0,.46,0,.87.02,1.23s.11.72.28,1.07c.21.42.52.73.93.93s.87.31,1.39.33c.52.02,1.04-.02,1.58-.13v-1.13c-.68.11-1.25.13-1.71.05-.46-.08-.8-.31-1.01-.7-.11-.21-.17-.44-.18-.71s-.01-.6-.01-1v-4.89h2.91v-1.11h-2.91v-2.64Z" style="fill:#fff;"></path>
    <path d="m126.75,67.88c-.33.11-.62.28-.86.5-.2.15-.38.35-.55.58-.08.11-.12.23-.18.35v-1.55h-1.16v9.49h1.29v-4.74c0-.38.03-.75.08-1.14s.16-.75.32-1.09.4-.64.71-.88c.35-.28.72-.45,1.13-.49s.79-.03,1.13.06v-1.21c-.28-.07-.58-.1-.91-.08-.33.02-.67.09-.99.2Z" style="fill:#fff;"></path>
    <path d="m141.04,69.39c-.25-.62-.68-1.09-1.29-1.41s-1.34-.49-2.21-.49c-1.05,0-1.9.23-2.56.7-.66.47-1.09,1.13-1.31,1.98l1.26.37c.18-.63.5-1.09.94-1.39s1-.44,1.65-.44c.94,0,1.61.23,1.99.68.35.41.52,1.04.54,1.87-.31.04-.64.09-1.01.13-.56.07-1.13.15-1.71.24-.58.09-1.12.19-1.6.31-.47.12-.89.3-1.25.54s-.64.53-.85.9-.31.81-.31,1.32.12.97.36,1.4.6.77,1.08,1.03,1.08.39,1.8.39c.95,0,1.76-.21,2.44-.64.48-.3.87-.71,1.17-1.2v1.58h1.15v-5.9c0-.35-.02-.7-.05-1.04-.04-.34-.11-.65-.23-.92Zm-1.12,4.51c-.08.47-.26.9-.54,1.28s-.64.67-1.09.89-.98.33-1.58.33c-.51,0-.92-.08-1.23-.25s-.53-.38-.67-.64-.21-.52-.21-.8c0-.34.08-.62.24-.85s.37-.41.62-.55.51-.24.78-.32c.4-.11.84-.2,1.34-.27s1-.14,1.51-.2c.34-.04.63-.08.93-.11,0,.14,0,.31,0,.51,0,.37-.04.7-.11,1.01Z" style="fill:#fff;"></path>
    <path d="m154.16,72.81c0,.53-.06,1.01-.18,1.44s-.3.79-.54,1.08c-.24.3-.53.52-.88.68s-.75.24-1.21.24c-.5,0-.92-.09-1.27-.27s-.63-.44-.85-.77-.38-.72-.48-1.16-.15-.93-.15-1.45v-4.84h-1.3v5.22c0,.43.04.86.12,1.29s.21.84.4,1.22.42.72.72,1.02.66.54,1.08.71.92.26,1.49.26c.77,0,1.46-.17,2.06-.51.45-.26.83-.61,1.13-1.05v1.32h1.16v-9.49h-1.29v5.06Z" style="fill:#fff;"></path>
    <path d="m167.68,72.5c-.5-.25-1.18-.48-2.06-.7-.74-.19-1.32-.36-1.72-.52s-.68-.33-.83-.5-.23-.39-.23-.65c0-.45.21-.81.63-1.08s.97-.4,1.64-.38c.71.01,1.3.18,1.77.5s.74.77.83,1.32l1.32-.24c-.06-.55-.27-1.03-.62-1.45s-.8-.74-1.37-.97-1.21-.35-1.92-.35-1.34.11-1.88.34c-.54.23-.96.54-1.26.95s-.46.88-.46,1.42c0,.45.1.82.31,1.13s.55.58,1.04.81c.49.23,1.16.47,2.02.7.8.22,1.41.4,1.81.56s.67.33.8.51.2.42.2.72c0,.52-.21.93-.62,1.23s-.98.45-1.71.45-1.36-.16-1.86-.48-.82-.75-.96-1.29l-1.32.22c.16.85.6,1.52,1.32,2s1.63.72,2.75.72,2.08-.26,2.75-.77,1-1.22,1-2.11c0-.49-.11-.91-.32-1.24s-.57-.62-1.06-.87Z" style="fill:#fff;"></path>
    <path d="m181.41,68.15c-.62-.44-1.36-.66-2.23-.66s-1.64.22-2.25.65c-.29.21-.55.46-.77.74v-4.29h-1.3v12.65h1.16v-1.33c.25.36.55.68.9.94.6.44,1.34.66,2.21.66s1.64-.22,2.27-.66c.63-.44,1.11-1.04,1.44-1.8.33-.75.5-1.61.5-2.56s-.17-1.79-.5-2.55c-.33-.75-.81-1.35-1.43-1.79Zm.22,6.29c-.22.58-.55,1.03-.99,1.37-.44.33-.99.5-1.65.5s-1.23-.16-1.67-.49-.77-.78-.98-1.36-.32-1.23-.32-1.96.11-1.4.32-1.97.54-1.02.98-1.34.99-.48,1.65-.48,1.24.17,1.68.5.77.79.99,1.36c.22.57.33,1.22.33,1.93s-.11,1.37-.33,1.95Z" style="fill:#fff;"></path>
    <path d="m196.77,72.86h.69c.03-1.11-.13-2.07-.47-2.87-.34-.8-.84-1.42-1.5-1.85-.66-.43-1.46-.65-2.4-.65s-1.71.21-2.38.62-1.19.99-1.56,1.75c-.37.76-.55,1.65-.55,2.69s.19,1.88.56,2.62c.38.74.9,1.32,1.58,1.73s1.48.62,2.4.62,1.74-.23,2.47-.68c.73-.45,1.28-1.09,1.66-1.92l-1.2-.46c-.29.59-.69,1.04-1.2,1.36s-1.1.47-1.78.47c-1,0-1.76-.33-2.31-.99-.48-.59-.74-1.4-.79-2.42h6.77Zm-5.98-3.19c.54-.66,1.32-.99,2.34-.99s1.71.31,2.22.94c.42.51.66,1.24.75,2.16h-6.08c.09-.88.34-1.58.77-2.11Z" style="fill:#fff;"></path>
    <path d="m206.04,67.88c-.33.11-.62.28-.86.5-.2.15-.38.35-.55.58-.08.11-.12.23-.18.35v-1.55h-1.16v9.49h1.29v-4.74c0-.38.03-.75.08-1.14s.16-.75.32-1.09.4-.64.71-.88c.35-.28.72-.45,1.13-.49s.79-.03,1.13.06v-1.21c-.28-.07-.58-.1-.91-.08-.33.02-.67.09-.99.2Z" style="fill:#fff;"></path>
    <path d="m219.92,67.75v1.32c-.26-.36-.56-.68-.91-.93-.61-.43-1.36-.65-2.25-.65s-1.61.22-2.23.66c-.62.44-1.1,1.04-1.43,1.79-.33.76-.5,1.61-.5,2.55s.17,1.8.5,2.56c.33.76.81,1.36,1.44,1.8.63.44,1.38.66,2.27.66s1.61-.22,2.21-.66c.28-.21.53-.45.75-.73v.98c0,.74-.09,1.37-.28,1.86-.19.5-.5.87-.93,1.13s-.98.38-1.67.38c-.5,0-.99-.12-1.46-.35s-.85-.61-1.11-1.14l-1.17.65c.27.49.6.89,1,1.2.4.31.83.53,1.3.68s.95.21,1.44.21c.77,0,1.44-.11,2.01-.33s1.02-.56,1.37-1.02.58-1.04.69-1.75c.04-.24.07-.49.08-.73s.02-.51.02-.78v-9.36h-1.15Zm-1.31,8.06c-.44.33-1,.49-1.67.49s-1.21-.17-1.65-.5-.77-.79-.99-1.37-.33-1.23-.33-1.95.11-1.36.32-1.93c.21-.57.54-1.03.99-1.36s1.01-.5,1.69-.5,1.21.16,1.65.48.76.77.98,1.34.33,1.23.33,1.97-.11,1.39-.33,1.96-.54,1.03-.98,1.36Z" style="fill:#fff;"></path>
    <path d="m4.98,37.72c.58-.28,1.06-.75,1.34-1.33.66-1.36.44-2.69-.27-3.64-.22-.29-.28-.67-.17-1.01C11.17,15.22,26.66,3.21,44.92,3.21c10.59,0,20.26,4.04,27.54,10.65h4.57C68.96,5.34,57.55,0,44.92,0,25.16,0,8.41,13.03,2.75,30.94c-.1.31-.3.58-.6.69-1.26.48-2.15,1.7-2.15,3.12,0,2.38,2.47,4.17,4.98,2.97Z" style="fill:#fff;"></path>
    <path d="m40.86,66.59c-9.26,0-17.71-5.68-20.79-14.41-5.34-15.13,6.07-30.37,20.78-30.37l35.19.03-16.21,36.21c-.23.5-.19,1.09.11,1.55.3.46.81.74,1.36.74h24.77c.42-1.05.8-2.12,1.14-3.22h-23.39s16.21-36.21,16.21-36.21c.23-.5.19-1.08-.11-1.54-.3-.46-.8-.74-1.35-.75l-37.71-.05c-16.83,0-29.88,17.26-23.86,34.62,3.49,10.06,13.21,16.63,23.86,16.63h36.03c-7.52,9.37-19.04,15.39-31.96,15.39-18.27,0-33.77-12.02-39.05-28.56-.11-.35-.05-.73.17-1.02.71-.95.94-2.28.28-3.64-.28-.58-.76-1.06-1.34-1.33-2.51-1.2-4.98.6-4.98,2.97,0,1.42.89,2.63,2.14,3.12.3.12.5.39.6.69,5.64,17.93,22.41,30.98,42.18,30.98,14.83,0,27.96-7.36,35.99-18.6,0,0,1.59-2.32,2.12-3.22l-33.94-.02,16.39-36.25c.23-.5.19-1.08-.11-1.54-.3-.46-.81-.74-1.36-.74l-22.91-.03c-10.6,0-18.85,10.27-15.34,21.37,2.09,6.59,8.38,10.94,15.29,10.94h7.3s-2.82,6.24-2.82,6.24h-4.67Zm.23-9.47c-7.13,0-12.92-5.8-12.92-12.93s5.79-12.93,12.92-12.93l20.4.03-11.68,25.83h-8.72Z" style="fill:#fff;"></path>
  </g>
</svg>
