<svg width="3627" height="821" viewBox="0 0 3627 821" fill="none" xmlns="http://www.w3.org/2000/svg">
<path d="M126.7 375.75C122.267 375.75 118.533 374.233 115.5 371.2C112.467 368.167 110.95 364.433 110.95 360V144.05C110.95 139.617 112.467 135.883 115.5 132.85C118.533 129.583 122.267 127.95 126.7 127.95C131.133 127.95 134.867 129.583 137.9 132.85C141.167 135.883 142.8 139.617 142.8 144.05V360C142.8 364.433 141.167 368.167 137.9 371.2C134.867 374.233 131.133 375.75 126.7 375.75ZM226.505 375.75C222.071 375.75 218.338 374.233 215.305 371.2C212.271 368.167 210.755 364.433 210.755 360V144.05C210.755 139.617 212.271 135.883 215.305 132.85C218.338 129.583 222.071 127.95 226.505 127.95C230.938 127.95 234.671 129.583 237.705 132.85C240.971 135.883 242.605 139.617 242.605 144.05V237.15H375.255V144.05C375.255 139.617 376.771 135.883 379.805 132.85C382.838 129.583 386.571 127.95 391.005 127.95C395.438 127.95 399.171 129.583 402.205 132.85C405.471 135.883 407.105 139.617 407.105 144.05V360C407.105 364.433 405.471 368.167 402.205 371.2C399.171 374.233 395.438 375.75 391.005 375.75C386.571 375.75 382.838 374.233 379.805 371.2C376.771 368.167 375.255 364.433 375.255 360V266.9H242.605V360C242.605 364.433 240.971 368.167 237.705 371.2C234.671 374.233 230.938 375.75 226.505 375.75ZM490.714 374C486.28 374 482.547 372.483 479.514 369.45C476.48 366.417 474.964 362.683 474.964 358.25V145.8C474.964 141.367 476.48 137.633 479.514 134.6C482.547 131.333 486.28 129.7 490.714 129.7H561.064C587.664 129.7 610.18 135.65 628.614 147.55C647.28 159.217 661.28 174.383 670.614 193.05C679.947 211.717 684.614 231.317 684.614 251.85C684.614 272.383 679.947 291.983 670.614 310.65C661.28 329.317 647.28 344.6 628.614 356.5C610.18 368.167 587.664 374 561.064 374H490.714ZM557.214 344.25C576.347 344.25 593.147 340.4 607.614 332.7C622.08 324.767 633.28 313.917 641.214 300.15C649.147 286.15 653.114 270.05 653.114 251.85C653.114 233.65 649.147 217.667 641.214 203.9C633.28 189.9 622.08 179.05 607.614 171.35C593.147 163.417 576.347 159.45 557.214 159.45H506.814V344.25H557.214ZM753.555 374C749.122 374 745.389 372.483 742.355 369.45C739.322 366.417 737.805 362.683 737.805 358.25V145.8C737.805 141.367 739.322 137.633 742.355 134.6C745.389 131.333 749.122 129.7 753.555 129.7H893.905C898.105 129.7 901.605 131.217 904.405 134.25C907.439 137.05 908.955 140.55 908.955 144.75C908.955 148.95 907.439 152.45 904.405 155.25C901.605 158.05 898.105 159.45 893.905 159.45H769.655V236.8H881.305C885.505 236.8 889.005 238.317 891.805 241.35C894.839 244.15 896.355 247.65 896.355 251.85C896.355 256.05 894.839 259.55 891.805 262.35C889.005 265.15 885.505 266.55 881.305 266.55H769.655V344.25H893.905C898.105 344.25 901.605 345.767 904.405 348.8C907.439 351.6 908.955 355.1 908.955 359.3C908.955 363.5 907.439 367 904.405 369.8C901.605 372.6 898.105 374 893.905 374H753.555ZM1118.07 375.75C1113.4 375.75 1109.2 374.467 1105.47 371.9C1101.97 369.1 1099.28 365.133 1097.42 360L1028.82 149.3C1028.12 146.733 1027.77 144.75 1027.77 143.35C1027.53 138.917 1028.82 135.3 1031.62 132.5C1034.65 129.467 1038.5 127.95 1043.17 127.95C1046.9 127.95 1050.17 129.117 1052.97 131.45C1055.77 133.783 1057.75 136.817 1058.92 140.55L1117.72 333.75L1176.87 141.25C1178.03 137.283 1180.25 134.133 1183.52 131.8C1187.02 129.233 1190.87 127.95 1195.07 127.95C1199.27 127.95 1203 129.233 1206.27 131.8C1209.77 134.133 1212.1 137.283 1213.27 141.25L1272.42 333.75L1331.22 140.55C1332.38 136.817 1334.37 133.783 1337.17 131.45C1339.97 129.117 1343.23 127.95 1346.97 127.95C1351.63 127.95 1355.37 129.467 1358.17 132.5C1361.2 135.3 1362.6 138.917 1362.37 143.35C1362.37 144.75 1362.02 146.733 1361.32 149.3L1292.72 360C1290.85 365.133 1288.05 369.1 1284.32 371.9C1280.82 374.467 1276.73 375.75 1272.07 375.75C1267.4 375.75 1263.08 374.35 1259.12 371.55C1255.38 368.517 1252.82 364.667 1251.42 360L1195.07 181.5L1138.72 360C1137.32 364.667 1134.63 368.517 1130.67 371.55C1126.93 374.35 1122.73 375.75 1118.07 375.75ZM1421.43 374C1416.99 374 1413.26 372.483 1410.23 369.45C1407.19 366.417 1405.68 362.683 1405.68 358.25V145.8C1405.68 141.367 1407.19 137.633 1410.23 134.6C1413.26 131.333 1416.99 129.7 1421.43 129.7H1561.78C1565.98 129.7 1569.48 131.217 1572.28 134.25C1575.31 137.05 1576.83 140.55 1576.83 144.75C1576.83 148.95 1575.31 152.45 1572.28 155.25C1569.48 158.05 1565.98 159.45 1561.78 159.45H1437.53V236.8H1549.18C1553.38 236.8 1556.88 238.317 1559.68 241.35C1562.71 244.15 1564.23 247.65 1564.23 251.85C1564.23 256.05 1562.71 259.55 1559.68 262.35C1556.88 265.15 1553.38 266.55 1549.18 266.55H1437.53V344.25H1561.78C1565.98 344.25 1569.48 345.767 1572.28 348.8C1575.31 351.6 1576.83 355.1 1576.83 359.3C1576.83 363.5 1575.31 367 1572.28 369.8C1569.48 372.6 1565.98 374 1561.78 374H1421.43ZM1644.62 374C1640.19 374 1636.45 372.483 1633.42 369.45C1630.39 366.417 1628.87 362.683 1628.87 358.25V145.8C1628.87 141.367 1630.39 137.633 1633.42 134.6C1636.45 131.333 1640.19 129.7 1644.62 129.7H1727.22C1752.19 129.7 1771.44 135.417 1784.97 146.85C1798.74 158.283 1805.62 173.683 1805.62 193.05C1805.62 206.583 1802.35 217.9 1795.82 227C1789.52 235.867 1781.35 242.517 1771.32 246.95C1785.32 251.383 1796.75 258.5 1805.62 268.3C1814.72 278.1 1819.27 290.467 1819.27 305.4C1819.27 326.867 1812.04 343.667 1797.57 355.8C1783.1 367.933 1760.35 374 1729.32 374H1644.62ZM1718.82 235.4C1739.59 235.4 1754.17 231.9 1762.57 224.9C1770.97 217.9 1775.17 208.1 1775.17 195.5C1775.17 184.533 1770.62 175.783 1761.52 169.25C1752.65 162.717 1740.4 159.45 1724.77 159.45H1660.72V235.4H1718.82ZM1726.17 344.25C1748.8 344.25 1764.79 340.75 1774.12 333.75C1783.69 326.75 1788.47 316.833 1788.47 304C1788.47 277.4 1767.82 264.1 1726.52 264.1H1660.72V344.25H1726.17ZM1948.55 377.5C1918.91 377.5 1891.15 371.9 1865.25 360.7C1862.45 359.533 1860.11 357.667 1858.25 355.1C1856.38 352.3 1855.45 349.383 1855.45 346.35C1855.45 342.383 1856.73 339 1859.3 336.2C1862.1 333.167 1865.6 331.65 1869.8 331.65C1872.13 331.65 1874.35 332.117 1876.45 333.05C1897.91 342.617 1920.9 347.4 1945.4 347.4C1986.23 347.4 2006.65 333.983 2006.65 307.15C2006.65 300.15 2003.96 294.317 1998.6 289.65C1993.46 284.983 1987.05 281.367 1979.35 278.8C1971.65 276 1960.68 272.733 1946.45 269C1927.55 264.1 1912.26 259.433 1900.6 255C1888.93 250.333 1878.9 243.45 1870.5 234.35C1862.1 225.25 1857.9 213.117 1857.9 197.95C1857.9 184.65 1861.4 172.633 1868.4 161.9C1875.4 150.933 1885.66 142.3 1899.2 136C1912.96 129.467 1929.41 126.2 1948.55 126.2C1974.21 126.2 1997.43 130.05 2018.2 137.75C2024.73 140.083 2028 144.75 2028 151.75C2028 155.483 2026.71 158.867 2024.15 161.9C2021.58 164.933 2018.2 166.45 2014 166.45C2012.6 166.45 2010.73 165.983 2008.4 165.05C1990.2 158.75 1971.41 155.6 1952.05 155.6C1933.61 155.6 1918.56 159.1 1906.9 166.1C1895.46 173.1 1889.75 182.9 1889.75 195.5C1889.75 203.9 1892.43 210.783 1897.8 216.15C1903.4 221.283 1910.28 225.367 1918.45 228.4C1926.85 231.2 1938.16 234.233 1952.4 237.5C1970.83 241.933 1985.65 246.367 1996.85 250.8C2008.28 255.233 2017.96 262.117 2025.9 271.45C2034.06 280.783 2038.15 293.383 2038.15 309.25C2038.15 322.317 2034.41 334.1 2026.95 344.6C2019.48 354.867 2008.98 362.917 1995.45 368.75C1981.91 374.583 1966.28 377.5 1948.55 377.5ZM2102.97 374C2098.54 374 2094.8 372.483 2091.77 369.45C2088.74 366.417 2087.22 362.683 2087.22 358.25V145.8C2087.22 141.367 2088.74 137.633 2091.77 134.6C2094.8 131.333 2098.54 129.7 2102.97 129.7H2243.32C2247.52 129.7 2251.02 131.217 2253.82 134.25C2256.85 137.05 2258.37 140.55 2258.37 144.75C2258.37 148.95 2256.85 152.45 2253.82 155.25C2251.02 158.05 2247.52 159.45 2243.32 159.45H2119.07V236.8H2230.72C2234.92 236.8 2238.42 238.317 2241.22 241.35C2244.25 244.15 2245.77 247.65 2245.77 251.85C2245.77 256.05 2244.25 259.55 2241.22 262.35C2238.42 265.15 2234.92 266.55 2230.72 266.55H2119.07V344.25H2243.32C2247.52 344.25 2251.02 345.767 2253.82 348.8C2256.85 351.6 2258.37 355.1 2258.37 359.3C2258.37 363.5 2256.85 367 2253.82 369.8C2251.02 372.6 2247.52 374 2243.32 374H2102.97ZM2326.16 375.75C2321.73 375.75 2318 374.233 2314.96 371.2C2311.93 368.167 2310.41 364.433 2310.41 360V145.8C2310.41 141.367 2311.93 137.633 2314.96 134.6C2318 131.333 2321.73 129.7 2326.16 129.7H2407.71C2439.45 129.7 2463.25 136.233 2479.11 149.3C2494.98 162.367 2502.91 179.517 2502.91 200.75C2502.91 214.75 2498.95 227.583 2491.01 239.25C2483.31 250.683 2472 258.967 2457.06 264.1C2473.86 268.533 2485.3 279.033 2491.36 295.6C2497.66 311.933 2500.81 328.033 2500.81 343.9V360C2500.81 364.433 2499.3 368.167 2496.26 371.2C2493.23 374.233 2489.5 375.75 2485.06 375.75C2480.16 375.75 2476.2 374.35 2473.16 371.55C2470.36 368.517 2468.96 364.667 2468.96 360V349.5C2468.96 337.833 2467.91 327.1 2465.81 317.3C2463.71 307.267 2458.7 298.4 2450.76 290.7C2442.83 282.767 2430.81 278.8 2414.71 278.8H2342.26V360C2342.26 364.433 2340.63 368.167 2337.36 371.2C2334.33 374.233 2330.6 375.75 2326.16 375.75ZM2405.61 248.7C2425.68 248.7 2441.55 244.733 2453.21 236.8C2465.11 228.867 2471.06 217.667 2471.06 203.2C2471.06 189.2 2465.93 178.467 2455.66 171C2445.63 163.533 2428.36 159.8 2403.86 159.8H2342.26V248.7H2405.61ZM2643.23 375.75C2633.67 375.75 2626.43 370.383 2621.53 359.65L2535.08 150C2534.38 148.133 2534.03 146.15 2534.03 144.05C2534.03 139.15 2535.43 135.3 2538.23 132.5C2541.03 129.467 2544.88 127.95 2549.78 127.95C2553.05 127.95 2555.97 129 2558.53 131.1C2561.33 132.967 2563.43 135.533 2564.83 138.8L2647.08 343.9L2729.33 138.8C2730.73 135.533 2732.72 132.967 2735.28 131.1C2738.08 129 2741.12 127.95 2744.38 127.95C2749.28 127.95 2753.13 129.467 2755.93 132.5C2758.73 135.3 2760.13 139.15 2760.13 144.05C2760.13 146.15 2759.78 148.133 2759.08 150L2672.63 359.65C2667.73 370.383 2660.5 375.75 2650.93 375.75H2643.23ZM2818.35 375.75C2813.92 375.75 2810.18 374.233 2807.15 371.2C2804.12 368.167 2802.6 364.433 2802.6 360V144.05C2802.6 139.617 2804.12 135.883 2807.15 132.85C2810.18 129.583 2813.92 127.95 2818.35 127.95C2822.78 127.95 2826.52 129.583 2829.55 132.85C2832.82 135.883 2834.45 139.617 2834.45 144.05V360C2834.45 364.433 2832.82 368.167 2829.55 371.2C2826.52 374.233 2822.78 375.75 2818.35 375.75ZM3010.21 377.5C2986.87 377.5 2965.87 372.483 2947.21 362.45C2928.77 352.183 2914.19 337.6 2903.46 318.7C2892.96 299.567 2887.71 277.283 2887.71 251.85C2887.71 226.417 2892.96 204.25 2903.46 185.35C2914.19 166.217 2928.77 151.633 2947.21 141.6C2965.87 131.333 2986.87 126.2 3010.21 126.2C3026.07 126.2 3040.19 128.067 3052.56 131.8C3065.16 135.533 3077.64 140.9 3090.01 147.9C3095.14 150.7 3097.71 155.133 3097.71 161.2C3097.71 164.7 3096.42 167.85 3093.86 170.65C3091.29 173.217 3087.91 174.5 3083.71 174.5C3081.37 174.5 3079.27 174.033 3077.41 173.1C3067.14 167.733 3057.11 163.65 3047.31 160.85C3037.51 158.05 3026.19 156.65 3013.36 156.65C2993.29 156.65 2976.14 160.85 2961.91 169.25C2947.91 177.417 2937.29 188.733 2930.06 203.2C2923.06 217.433 2919.56 233.65 2919.56 251.85C2919.56 270.05 2923.06 286.383 2930.06 300.85C2937.29 315.083 2947.91 326.4 2961.91 334.8C2976.14 342.967 2993.29 347.05 3013.36 347.05C3026.19 347.05 3037.51 345.65 3047.31 342.85C3057.11 340.05 3067.14 335.967 3077.41 330.6C3079.27 329.667 3081.37 329.2 3083.71 329.2C3087.91 329.2 3091.29 330.483 3093.86 333.05C3096.42 335.617 3097.71 338.767 3097.71 342.5C3097.71 348.567 3095.14 353 3090.01 355.8C3077.64 362.8 3065.16 368.167 3052.56 371.9C3040.19 375.633 3026.07 377.5 3010.21 377.5ZM3161.51 374C3157.08 374 3153.35 372.483 3150.31 369.45C3147.28 366.417 3145.76 362.683 3145.76 358.25V145.8C3145.76 141.367 3147.28 137.633 3150.31 134.6C3153.35 131.333 3157.08 129.7 3161.51 129.7H3301.86C3306.06 129.7 3309.56 131.217 3312.36 134.25C3315.4 137.05 3316.91 140.55 3316.91 144.75C3316.91 148.95 3315.4 152.45 3312.36 155.25C3309.56 158.05 3306.06 159.45 3301.86 159.45H3177.61V236.8H3289.26C3293.46 236.8 3296.96 238.317 3299.76 241.35C3302.8 244.15 3304.31 247.65 3304.31 251.85C3304.31 256.05 3302.8 259.55 3299.76 262.35C3296.96 265.15 3293.46 266.55 3289.26 266.55H3177.61V344.25H3301.86C3306.06 344.25 3309.56 345.767 3312.36 348.8C3315.4 351.6 3316.91 355.1 3316.91 359.3C3316.91 363.5 3315.4 367 3312.36 369.8C3309.56 372.6 3306.06 374 3301.86 374H3161.51ZM3445.96 377.5C3416.32 377.5 3388.56 371.9 3362.66 360.7C3359.86 359.533 3357.52 357.667 3355.66 355.1C3353.79 352.3 3352.86 349.383 3352.86 346.35C3352.86 342.383 3354.14 339 3356.71 336.2C3359.51 333.167 3363.01 331.65 3367.21 331.65C3369.54 331.65 3371.76 332.117 3373.86 333.05C3395.32 342.617 3418.31 347.4 3442.81 347.4C3483.64 347.4 3504.06 333.983 3504.06 307.15C3504.06 300.15 3501.37 294.317 3496.01 289.65C3490.87 284.983 3484.46 281.367 3476.76 278.8C3469.06 276 3458.09 272.733 3443.86 269C3424.96 264.1 3409.67 259.433 3398.01 255C3386.34 250.333 3376.31 243.45 3367.91 234.35C3359.51 225.25 3355.31 213.117 3355.31 197.95C3355.31 184.65 3358.81 172.633 3365.81 161.9C3372.81 150.933 3383.07 142.3 3396.61 136C3410.37 129.467 3426.82 126.2 3445.96 126.2C3471.62 126.2 3494.84 130.05 3515.61 137.75C3522.14 140.083 3525.41 144.75 3525.41 151.75C3525.41 155.483 3524.12 158.867 3521.56 161.9C3518.99 164.933 3515.61 166.45 3511.41 166.45C3510.01 166.45 3508.14 165.983 3505.81 165.05C3487.61 158.75 3468.82 155.6 3449.46 155.6C3431.02 155.6 3415.97 159.1 3404.31 166.1C3392.87 173.1 3387.16 182.9 3387.16 195.5C3387.16 203.9 3389.84 210.783 3395.21 216.15C3400.81 221.283 3407.69 225.367 3415.86 228.4C3424.26 231.2 3435.57 234.233 3449.81 237.5C3468.24 241.933 3483.06 246.367 3494.26 250.8C3505.69 255.233 3515.37 262.117 3523.31 271.45C3531.47 280.783 3535.56 293.383 3535.56 309.25C3535.56 322.317 3531.82 334.1 3524.36 344.6C3516.89 354.867 3506.39 362.917 3492.86 368.75C3479.32 374.583 3463.69 377.5 3445.96 377.5Z" fill="#00E0FF"/>
<path d="M454.2 693C451.533 693 449.133 692.267 447 690.8C445 689.2 443.467 686.933 442.4 684L403.2 563.6C402.8 562.133 402.6 561 402.6 560.2C402.467 557.667 403.2 555.6 404.8 554C406.533 552.267 408.733 551.4 411.4 551.4C413.533 551.4 415.4 552.067 417 553.4C418.6 554.733 419.733 556.467 420.4 558.6L454 669L487.8 559C488.467 556.733 489.733 554.933 491.6 553.6C493.6 552.133 495.8 551.4 498.2 551.4C500.6 551.4 502.733 552.133 504.6 553.6C506.6 554.933 507.933 556.733 508.6 559L542.4 669L576 558.6C576.667 556.467 577.8 554.733 579.4 553.4C581 552.067 582.867 551.4 585 551.4C587.667 551.4 589.8 552.267 591.4 554C593.133 555.6 593.933 557.667 593.8 560.2C593.8 561 593.6 562.133 593.2 563.6L554 684C552.933 686.933 551.333 689.2 549.2 690.8C547.2 692.267 544.867 693 542.2 693C539.533 693 537.067 692.2 534.8 690.6C532.667 688.867 531.2 686.667 530.4 684L498.2 582L466 684C465.2 686.667 463.667 688.867 461.4 690.6C459.267 692.2 456.867 693 454.2 693ZM651.564 694C635.297 694 622.564 689.4 613.364 680.2C604.297 670.867 599.764 657.8 599.764 641C599.764 631.533 601.497 622.8 604.964 614.8C608.431 606.8 613.764 600.333 620.964 595.4C628.164 590.467 637.031 588 647.564 588C657.431 588 665.964 590.333 673.164 595C680.364 599.533 685.831 605.667 689.564 613.4C693.297 621 695.164 629.333 695.164 638.4C695.164 640.933 694.297 643.067 692.564 644.8C690.964 646.533 688.764 647.4 685.964 647.4H618.164C619.231 656.733 622.697 664 628.564 669.2C634.431 674.4 642.631 677 653.164 677C658.764 677 663.631 676.467 667.764 675.4C672.031 674.333 676.164 672.8 680.164 670.8C681.231 670.267 682.431 670 683.764 670C685.897 670 687.764 670.733 689.364 672.2C690.964 673.667 691.764 675.533 691.764 677.8C691.764 680.733 690.031 683.2 686.564 685.2C681.364 688.133 676.231 690.333 671.164 691.8C666.097 693.267 659.564 694 651.564 694ZM677.164 632.6C676.764 626.067 675.031 620.6 671.964 616.2C669.031 611.8 665.364 608.6 660.964 606.6C656.564 604.467 652.097 603.4 647.564 603.4C643.031 603.4 638.564 604.467 634.164 606.6C629.764 608.6 626.097 611.8 623.164 616.2C620.231 620.6 618.564 626.067 618.164 632.6H677.164ZM771.645 694C758.579 694 747.179 688.933 737.445 678.8V684C737.445 686.533 736.512 688.667 734.645 690.4C732.912 692.133 730.779 693 728.245 693C725.712 693 723.579 692.133 721.845 690.4C720.112 688.667 719.245 686.533 719.245 684V554.2C719.245 551.667 720.112 549.533 721.845 547.8C723.579 545.933 725.712 545 728.245 545C730.912 545 733.112 545.867 734.845 547.6C736.579 549.333 737.445 551.533 737.445 554.2V603.2C747.179 593.067 758.579 588 771.645 588C779.912 588 787.712 590.133 795.045 594.4C802.512 598.533 808.512 604.667 813.045 612.8C817.712 620.8 820.045 630.2 820.045 641C820.045 651.8 817.712 661.267 813.045 669.4C808.512 677.4 802.512 683.533 795.045 687.8C787.712 691.933 779.912 694 771.645 694ZM769.045 677C778.912 677 786.845 673.867 792.845 667.6C798.845 661.333 801.845 652.467 801.845 641C801.845 629.533 798.845 620.667 792.845 614.4C786.845 608.133 778.912 605 769.045 605C762.912 605 757.112 606.4 751.645 609.2C746.312 611.867 741.579 615.467 737.445 620V662C741.579 666.533 746.312 670.2 751.645 673C757.112 675.667 762.912 677 769.045 677ZM891.017 694C874.751 694 862.017 689.4 852.817 680.2C843.751 670.867 839.217 657.8 839.217 641C839.217 631.533 840.951 622.8 844.417 614.8C847.884 606.8 853.217 600.333 860.417 595.4C867.617 590.467 876.484 588 887.017 588C896.884 588 905.417 590.333 912.617 595C919.817 599.533 925.284 605.667 929.017 613.4C932.751 621 934.617 629.333 934.617 638.4C934.617 640.933 933.751 643.067 932.017 644.8C930.417 646.533 928.217 647.4 925.417 647.4H857.617C858.684 656.733 862.151 664 868.017 669.2C873.884 674.4 882.084 677 892.617 677C898.217 677 903.084 676.467 907.217 675.4C911.484 674.333 915.617 672.8 919.617 670.8C920.684 670.267 921.884 670 923.217 670C925.351 670 927.217 670.733 928.817 672.2C930.417 673.667 931.217 675.533 931.217 677.8C931.217 680.733 929.484 683.2 926.017 685.2C920.817 688.133 915.684 690.333 910.617 691.8C905.551 693.267 899.017 694 891.017 694ZM916.617 632.6C916.217 626.067 914.484 620.6 911.417 616.2C908.484 611.8 904.817 608.6 900.417 606.6C896.017 604.467 891.551 603.4 887.017 603.4C882.484 603.4 878.017 604.467 873.617 606.6C869.217 608.6 865.551 611.8 862.617 616.2C859.684 620.6 858.017 626.067 857.617 632.6H916.617ZM967.698 693C965.165 693 963.032 692.133 961.298 690.4C959.565 688.667 958.698 686.533 958.698 684V598.2C958.698 595.667 959.565 593.533 961.298 591.8C963.032 589.933 965.165 589 967.698 589C970.232 589 972.365 589.933 974.098 591.8C975.965 593.533 976.898 595.667 976.898 598.2V606.4C981.965 600.8 987.432 596.333 993.298 593C999.165 589.667 1006.1 588 1014.1 588C1021.43 588 1027.77 589.733 1033.1 593.2C1038.57 596.667 1042.7 601.4 1045.5 607.4C1048.43 613.4 1049.9 620 1049.9 627.2V684C1049.9 686.533 1048.97 688.667 1047.1 690.4C1045.37 692.133 1043.23 693 1040.7 693C1038.17 693 1036.03 692.133 1034.3 690.4C1032.57 688.667 1031.7 686.533 1031.7 684V629.2C1031.7 612.933 1024.37 604.8 1009.7 604.8C1003.03 604.8 997.032 606.533 991.698 610C986.498 613.467 981.565 618.133 976.898 624V684C976.898 686.533 975.965 688.667 974.098 690.4C972.365 692.133 970.232 693 967.698 693ZM1113.43 694C1093.96 694 1084.23 685.2 1084.23 667.6V605.6H1070.03C1068.96 605.6 1068.03 605.267 1067.23 604.6C1066.56 603.8 1066.23 602.867 1066.23 601.8C1066.23 600.467 1066.83 599.333 1068.03 598.4L1095.23 571.8C1096.43 570.6 1097.56 570 1098.63 570C1099.7 570 1100.56 570.4 1101.23 571.2C1102.03 572 1102.43 572.933 1102.43 574V590H1125.03C1127.3 590 1129.16 590.733 1130.63 592.2C1132.1 593.667 1132.83 595.533 1132.83 597.8C1132.83 599.933 1132.1 601.8 1130.63 603.4C1129.16 604.867 1127.3 605.6 1125.03 605.6H1102.43V666C1102.43 671.2 1103.63 674.533 1106.03 676C1108.56 677.333 1111.7 678 1115.43 678C1118.1 678 1120.76 677.6 1123.43 676.8C1123.96 676.667 1124.5 676.533 1125.03 676.4C1125.7 676.267 1126.5 676.2 1127.43 676.2C1129.3 676.2 1130.96 676.933 1132.43 678.4C1133.9 679.733 1134.63 681.4 1134.63 683.4C1134.63 686.467 1133.1 688.8 1130.03 690.4C1124.83 692.8 1119.3 694 1113.43 694ZM1184.02 693C1181.35 693 1178.95 692.2 1176.82 690.6C1174.69 689 1173.22 687 1172.42 684.6L1144.02 601.4C1143.62 600.2 1143.42 599.067 1143.42 598C1143.42 595.467 1144.29 593.333 1146.02 591.6C1147.75 589.867 1149.89 589 1152.42 589C1154.29 589 1155.95 589.533 1157.42 590.6C1159.02 591.533 1160.09 592.8 1160.62 594.4L1184.02 671.4L1207.22 596.2C1207.89 594.067 1209.09 592.333 1210.82 591C1212.69 589.667 1214.75 589 1217.02 589C1219.29 589 1221.29 589.667 1223.02 591C1224.89 592.333 1226.15 594.067 1226.82 596.2L1250.02 671.4L1273.42 594.4C1273.95 592.8 1274.95 591.533 1276.42 590.6C1278.02 589.533 1279.75 589 1281.62 589C1284.15 589 1286.29 589.867 1288.02 591.6C1289.75 593.333 1290.62 595.467 1290.62 598C1290.62 599.067 1290.42 600.2 1290.02 601.4L1261.62 684.6C1260.82 687 1259.35 689 1257.22 690.6C1255.09 692.2 1252.69 693 1250.02 693C1247.35 693 1244.95 692.2 1242.82 690.6C1240.69 689 1239.15 686.933 1238.22 684.4L1217.02 618.2L1195.82 684.4C1194.89 686.933 1193.35 689 1191.22 690.6C1189.09 692.2 1186.69 693 1184.02 693ZM1320.62 569.2C1317.82 569.2 1315.42 568.2 1313.42 566.2C1311.42 564.2 1310.42 561.8 1310.42 559V558.2C1310.42 555.4 1311.42 553 1313.42 551C1315.42 549 1317.82 548 1320.62 548H1321.82C1324.62 548 1327.02 549 1329.02 551C1331.02 553 1332.02 555.4 1332.02 558.2V559C1332.02 561.8 1331.02 564.2 1329.02 566.2C1327.02 568.2 1324.62 569.2 1321.82 569.2H1320.62ZM1321.02 693C1318.49 693 1316.35 692.133 1314.62 690.4C1312.89 688.667 1312.02 686.533 1312.02 684V598.2C1312.02 595.667 1312.89 593.533 1314.62 591.8C1316.35 589.933 1318.49 589 1321.02 589C1323.69 589 1325.89 589.867 1327.62 591.6C1329.35 593.333 1330.22 595.533 1330.22 598.2V684C1330.22 686.533 1329.29 688.667 1327.42 690.4C1325.69 692.133 1323.55 693 1321.02 693ZM1409.02 694C1399.42 694 1390.56 691.867 1382.42 687.6C1374.29 683.333 1367.76 677.2 1362.82 669.2C1358.02 661.2 1355.62 651.8 1355.62 641C1355.62 630.2 1358.02 620.8 1362.82 612.8C1367.76 604.8 1374.29 598.667 1382.42 594.4C1390.56 590.133 1399.42 588 1409.02 588C1416.09 588 1422.16 588.933 1427.22 590.8C1432.42 592.533 1437.22 594.8 1441.62 597.6C1444.29 599.333 1445.62 601.667 1445.62 604.6C1445.62 606.6 1444.82 608.467 1443.22 610.2C1441.76 611.8 1440.02 612.6 1438.02 612.6C1436.56 612.6 1435.09 612.2 1433.62 611.4C1429.22 609.133 1425.42 607.533 1422.22 606.6C1419.16 605.533 1415.29 605 1410.62 605C1399.16 605 1390.16 608.333 1383.62 615C1377.09 621.533 1373.82 630.2 1373.82 641C1373.82 651.8 1377.09 660.533 1383.62 667.2C1390.16 673.733 1399.16 677 1410.62 677C1415.29 677 1419.16 676.533 1422.22 675.6C1425.42 674.533 1429.22 672.867 1433.62 670.6C1435.09 669.8 1436.56 669.4 1438.02 669.4C1440.02 669.4 1441.76 670.267 1443.22 672C1444.82 673.6 1445.62 675.4 1445.62 677.4C1445.62 680.333 1444.29 682.667 1441.62 684.4C1437.22 687.2 1432.42 689.533 1427.22 691.4C1422.16 693.133 1416.09 694 1409.02 694ZM1477.46 693C1474.93 693 1472.8 692.133 1471.06 690.4C1469.33 688.667 1468.46 686.533 1468.46 684V554.2C1468.46 551.667 1469.33 549.533 1471.06 547.8C1472.8 545.933 1474.93 545 1477.46 545C1480 545 1482.13 545.933 1483.86 547.8C1485.73 549.533 1486.66 551.667 1486.66 554.2V636L1534.26 592C1536.26 590.267 1538.26 589.4 1540.26 589.4C1543.33 589.4 1545.53 590.267 1546.86 592C1548.33 593.733 1549.06 595.8 1549.06 598.2C1549.06 600.467 1547.93 602.733 1545.66 605L1516.86 630.8L1553.06 678.8C1554.4 680.533 1555.06 682.333 1555.06 684.2C1555.06 686.867 1554.2 689 1552.46 690.6C1550.73 692.2 1548.53 693 1545.86 693C1544.53 693 1543.2 692.667 1541.86 692C1540.53 691.333 1539.4 690.4 1538.46 689.2L1504.06 642.4L1486.66 658.2V684C1486.66 686.533 1485.73 688.667 1483.86 690.4C1482.13 692.133 1480 693 1477.46 693ZM1586.45 693C1583.92 693 1581.78 692.133 1580.05 690.4C1578.32 688.667 1577.45 686.533 1577.45 684V554.2C1577.45 551.667 1578.32 549.533 1580.05 547.8C1581.78 545.933 1583.92 545 1586.45 545C1589.12 545 1591.32 545.867 1593.05 547.6C1594.78 549.333 1595.65 551.533 1595.65 554.2V684C1595.65 686.533 1594.72 688.667 1592.85 690.4C1591.12 692.133 1588.98 693 1586.45 693ZM1662.05 694C1654.72 694 1648.32 692.267 1642.85 688.8C1637.52 685.333 1633.39 680.6 1630.45 674.6C1627.65 668.6 1626.25 662 1626.25 654.8V598C1626.25 595.467 1627.12 593.333 1628.85 591.6C1630.72 589.867 1632.92 589 1635.45 589C1637.99 589 1640.12 589.867 1641.85 591.6C1643.59 593.333 1644.45 595.467 1644.45 598V652.8C1644.45 669.067 1651.79 677.2 1666.45 677.2C1673.12 677.2 1679.05 675.467 1684.25 672C1689.59 668.533 1694.59 663.867 1699.25 658V598C1699.25 595.467 1700.12 593.333 1701.85 591.6C1703.72 589.867 1705.92 589 1708.45 589C1710.99 589 1713.12 589.867 1714.85 591.6C1716.59 593.333 1717.45 595.467 1717.45 598V683.8C1717.45 686.333 1716.59 688.533 1714.85 690.4C1713.12 692.133 1710.99 693 1708.45 693C1705.92 693 1703.72 692.133 1701.85 690.4C1700.12 688.533 1699.25 686.333 1699.25 683.8V675.6C1694.19 681.2 1688.72 685.667 1682.85 689C1676.99 692.333 1670.05 694 1662.05 694ZM1758.13 693C1755.59 693 1753.46 692.133 1751.73 690.4C1749.99 688.667 1749.13 686.533 1749.13 684V598.2C1749.13 595.667 1749.99 593.533 1751.73 591.8C1753.46 589.933 1755.59 589 1758.13 589C1760.66 589 1762.79 589.933 1764.53 591.8C1766.39 593.533 1767.33 595.667 1767.33 598.2V606.4C1772.39 600.8 1777.86 596.333 1783.73 593C1789.59 589.667 1796.53 588 1804.53 588C1811.86 588 1818.19 589.733 1823.53 593.2C1828.99 596.667 1833.13 601.4 1835.93 607.4C1838.86 613.4 1840.33 620 1840.33 627.2V684C1840.33 686.533 1839.39 688.667 1837.53 690.4C1835.79 692.133 1833.66 693 1831.13 693C1828.59 693 1826.46 692.133 1824.73 690.4C1822.99 688.667 1822.13 686.533 1822.13 684V629.2C1822.13 612.933 1814.79 604.8 1800.13 604.8C1793.46 604.8 1787.46 606.533 1782.13 610C1776.93 613.467 1771.99 618.133 1767.33 624V684C1767.33 686.533 1766.39 688.667 1764.53 690.4C1762.79 692.133 1760.66 693 1758.13 693ZM1918.6 740C1910.87 740 1903.07 739 1895.2 737C1887.34 735 1880.87 732.533 1875.8 729.6C1873.4 728.133 1872.2 725.8 1872.2 722.6C1872.2 720.467 1872.94 718.533 1874.4 716.8C1876 715.2 1877.94 714.4 1880.2 714.4C1881.27 714.4 1882.47 714.667 1883.8 715.2C1893.94 720.267 1904.94 722.8 1916.8 722.8C1937.2 722.8 1947.4 711.933 1947.4 690.2V676.8C1937.94 686.933 1926.54 692 1913.2 692C1905.34 692 1897.67 690.067 1890.2 686.2C1882.87 682.2 1876.8 676.333 1872 668.6C1867.2 660.733 1864.8 651.2 1864.8 640C1864.8 628.8 1867.2 619.333 1872 611.6C1876.8 603.733 1882.87 597.867 1890.2 594C1897.67 590 1905.34 588 1913.2 588C1926.54 588 1937.94 593.067 1947.4 603.2V598.2C1947.4 595.667 1948.27 593.533 1950 591.8C1951.74 589.933 1953.87 589 1956.4 589C1958.94 589 1961.07 589.933 1962.8 591.8C1964.67 593.533 1965.6 595.667 1965.6 598.2V687.6C1965.6 704.4 1961.54 717.333 1953.4 726.4C1945.27 735.467 1933.67 740 1918.6 740ZM1917 675.4C1923.27 675.4 1928.8 674.067 1933.6 671.4C1938.4 668.733 1943 665.133 1947.4 660.6V619.4C1943 614.867 1938.4 611.267 1933.6 608.6C1928.8 605.933 1923.27 604.6 1917 604.6C1907 604.6 1898.8 607.667 1892.4 613.8C1886.14 619.8 1883 628.533 1883 640C1883 651.467 1886.14 660.267 1892.4 666.4C1898.8 672.4 1907 675.4 1917 675.4ZM2096.53 694C2085.33 694 2076.06 692.067 2068.73 688.2C2061.39 684.2 2055.99 679.067 2052.53 672.8C2049.19 666.533 2047.53 659.867 2047.53 652.8C2047.53 643.733 2049.86 636 2054.53 629.6C2059.33 623.067 2064.53 618 2070.13 614.4C2066.13 609.6 2063.06 605 2060.93 600.6C2058.93 596.2 2057.93 591.133 2057.93 585.4C2057.93 579 2059.39 573.133 2062.33 567.8C2065.39 562.467 2069.73 558.267 2075.33 555.2C2081.06 552 2087.73 550.4 2095.33 550.4C2104.26 550.4 2113.13 553.333 2121.93 559.2C2122.86 559.733 2123.66 560.6 2124.33 561.8C2125.13 562.867 2125.53 564 2125.53 565.2C2125.53 567.067 2124.86 568.733 2123.53 570.2C2122.19 571.533 2120.53 572.2 2118.53 572.2C2117.46 572.2 2116.26 571.867 2114.93 571.2C2108.53 567.733 2102.26 566 2096.13 566C2089.46 566 2084.19 567.867 2080.33 571.6C2076.59 575.2 2074.73 579.467 2074.73 584.4C2074.73 588.267 2075.33 591.667 2076.53 594.6C2077.86 597.533 2079.79 600.4 2082.33 603.2C2084.86 606 2088.99 610.067 2094.73 615.4L2136.53 654.8C2138.39 652.133 2140.59 648.067 2143.13 642.6C2143.79 641.133 2144.79 639.933 2146.13 639C2147.59 638.067 2149.19 637.6 2150.93 637.6C2153.33 637.6 2155.33 638.4 2156.93 640C2158.53 641.467 2159.33 643.4 2159.33 645.8C2159.33 647.133 2158.99 648.467 2158.33 649.8C2155.66 655.533 2152.46 661 2148.73 666.2L2162.13 679C2163.19 679.933 2163.99 680.867 2164.53 681.8C2165.06 682.733 2165.33 683.933 2165.33 685.4C2165.33 687.667 2164.59 689.6 2163.13 691.2C2161.66 692.8 2159.66 693.6 2157.13 693.6C2154.73 693.6 2152.66 692.8 2150.93 691.2L2137.53 678.4C2131.79 683.2 2125.46 687 2118.53 689.8C2111.59 692.6 2104.26 694 2096.53 694ZM2094.93 678.6C2106.26 678.6 2116.53 674.867 2125.73 667.4L2081.13 625.6C2076.59 628.533 2072.73 632.333 2069.53 637C2066.33 641.667 2064.73 647.133 2064.73 653.4C2064.73 660.733 2067.59 666.8 2073.33 671.6C2079.19 676.267 2086.39 678.6 2094.93 678.6ZM2260.17 693C2257.63 693 2255.5 692.133 2253.77 690.4C2252.03 688.667 2251.17 686.533 2251.17 684V564.6C2251.17 561 2252.43 557.933 2254.97 555.4C2257.5 552.733 2260.57 551.4 2264.17 551.4H2270.77C2273.43 551.4 2275.83 552.2 2277.97 553.8C2280.23 555.4 2281.9 557.4 2282.97 559.8L2328.37 673L2373.77 559.8C2374.83 557.4 2376.43 555.4 2378.57 553.8C2380.83 552.2 2383.3 551.4 2385.97 551.4H2392.57C2396.17 551.4 2399.23 552.733 2401.77 555.4C2404.3 557.933 2405.57 561 2405.57 564.6V684C2405.57 686.533 2404.7 688.667 2402.97 690.4C2401.23 692.133 2399.1 693 2396.57 693C2394.03 693 2391.83 692.133 2389.97 690.4C2388.23 688.667 2387.37 686.533 2387.37 684V570.4L2341.17 684.6C2340.1 687.133 2338.37 689.2 2335.97 690.8C2333.7 692.267 2331.17 693 2328.37 693C2325.57 693 2322.97 692.267 2320.57 690.8C2318.3 689.2 2316.63 687.133 2315.57 684.6L2269.37 570.4V684C2269.37 686.533 2268.43 688.667 2266.57 690.4C2264.83 692.133 2262.7 693 2260.17 693ZM2466.73 694C2460.86 694 2455.4 692.8 2450.33 690.4C2445.4 688 2441.46 684.533 2438.53 680C2435.6 675.333 2434.13 670 2434.13 664C2434.13 654.133 2438 646.267 2445.73 640.4C2453.6 634.533 2465.06 631.6 2480.13 631.6H2504.33V630C2504.33 621.2 2502.13 614.867 2497.73 611C2493.46 607.133 2486.73 605.2 2477.53 605.2C2472.46 605.2 2467.93 605.6 2463.93 606.4C2460.06 607.2 2455.73 608.4 2450.93 610C2449.86 610.267 2449 610.4 2448.33 610.4C2446.33 610.4 2444.6 609.667 2443.13 608.2C2441.66 606.733 2440.93 604.933 2440.93 602.8C2440.93 599.2 2442.66 596.667 2446.13 595.2C2457.46 590.4 2469 588 2480.73 588C2489.93 588 2497.66 589.867 2503.93 593.6C2510.33 597.333 2515 602.2 2517.93 608.2C2521 614.067 2522.53 620.467 2522.53 627.4V684C2522.53 686.533 2521.6 688.667 2519.73 690.4C2518 692.133 2515.86 693 2513.33 693C2510.8 693 2508.66 692.133 2506.93 690.4C2505.2 688.667 2504.33 686.533 2504.33 684V678.8C2494.46 688.933 2481.93 694 2466.73 694ZM2473.53 678C2479.4 678 2485.06 676.6 2490.53 673.8C2496 670.867 2500.6 667.267 2504.33 663V646.2H2482.53C2462.4 646.2 2452.33 651.467 2452.33 662C2452.33 666.8 2453.93 670.667 2457.13 673.6C2460.46 676.533 2465.93 678 2473.53 678ZM2562.03 693C2559.5 693 2557.37 692.133 2555.63 690.4C2553.9 688.667 2553.03 686.533 2553.03 684V598.2C2553.03 595.667 2553.9 593.533 2555.63 591.8C2557.37 589.933 2559.5 589 2562.03 589C2564.57 589 2566.7 589.933 2568.43 591.8C2570.3 593.533 2571.23 595.667 2571.23 598.2V606.8C2580.57 594.267 2591.03 588 2602.63 588H2603.63C2606.17 588 2608.23 588.867 2609.83 590.6C2611.57 592.333 2612.43 594.467 2612.43 597C2612.43 599.533 2611.57 601.6 2609.83 603.2C2608.1 604.8 2605.9 605.6 2603.23 605.6H2602.23C2595.83 605.6 2589.97 607.2 2584.63 610.4C2579.3 613.467 2574.83 617.733 2571.23 623.2V684C2571.23 686.533 2570.3 688.667 2568.43 690.4C2566.7 692.133 2564.57 693 2562.03 693ZM2638.6 693C2636.06 693 2633.93 692.133 2632.2 690.4C2630.46 688.667 2629.6 686.533 2629.6 684V554.2C2629.6 551.667 2630.46 549.533 2632.2 547.8C2633.93 545.933 2636.06 545 2638.6 545C2641.13 545 2643.26 545.933 2645 547.8C2646.86 549.533 2647.8 551.667 2647.8 554.2V636L2695.4 592C2697.4 590.267 2699.4 589.4 2701.4 589.4C2704.46 589.4 2706.66 590.267 2708 592C2709.46 593.733 2710.2 595.8 2710.2 598.2C2710.2 600.467 2709.06 602.733 2706.8 605L2678 630.8L2714.2 678.8C2715.53 680.533 2716.2 682.333 2716.2 684.2C2716.2 686.867 2715.33 689 2713.6 690.6C2711.86 692.2 2709.66 693 2707 693C2705.66 693 2704.33 692.667 2703 692C2701.66 691.333 2700.53 690.4 2699.6 689.2L2665.2 642.4L2647.8 658.2V684C2647.8 686.533 2646.86 688.667 2645 690.4C2643.26 692.133 2641.13 693 2638.6 693ZM2782.42 694C2766.16 694 2753.42 689.4 2744.22 680.2C2735.16 670.867 2730.62 657.8 2730.62 641C2730.62 631.533 2732.36 622.8 2735.82 614.8C2739.29 606.8 2744.62 600.333 2751.82 595.4C2759.02 590.467 2767.89 588 2778.42 588C2788.29 588 2796.82 590.333 2804.02 595C2811.22 599.533 2816.69 605.667 2820.42 613.4C2824.16 621 2826.02 629.333 2826.02 638.4C2826.02 640.933 2825.16 643.067 2823.42 644.8C2821.82 646.533 2819.62 647.4 2816.82 647.4H2749.02C2750.09 656.733 2753.56 664 2759.42 669.2C2765.29 674.4 2773.49 677 2784.02 677C2789.62 677 2794.49 676.467 2798.62 675.4C2802.89 674.333 2807.02 672.8 2811.02 670.8C2812.09 670.267 2813.29 670 2814.62 670C2816.76 670 2818.62 670.733 2820.22 672.2C2821.82 673.667 2822.62 675.533 2822.62 677.8C2822.62 680.733 2820.89 683.2 2817.42 685.2C2812.22 688.133 2807.09 690.333 2802.02 691.8C2796.96 693.267 2790.42 694 2782.42 694ZM2808.02 632.6C2807.62 626.067 2805.89 620.6 2802.82 616.2C2799.89 611.8 2796.22 608.6 2791.82 606.6C2787.42 604.467 2782.96 603.4 2778.42 603.4C2773.89 603.4 2769.42 604.467 2765.02 606.6C2760.62 608.6 2756.96 611.8 2754.02 616.2C2751.09 620.6 2749.42 626.067 2749.02 632.6H2808.02ZM2885.3 694C2865.84 694 2856.1 685.2 2856.1 667.6V605.6H2841.9C2840.84 605.6 2839.9 605.267 2839.1 604.6C2838.44 603.8 2838.1 602.867 2838.1 601.8C2838.1 600.467 2838.7 599.333 2839.9 598.4L2867.1 571.8C2868.3 570.6 2869.44 570 2870.5 570C2871.57 570 2872.44 570.4 2873.1 571.2C2873.9 572 2874.3 572.933 2874.3 574V590H2896.9C2899.17 590 2901.04 590.733 2902.5 592.2C2903.97 593.667 2904.7 595.533 2904.7 597.8C2904.7 599.933 2903.97 601.8 2902.5 603.4C2901.04 604.867 2899.17 605.6 2896.9 605.6H2874.3V666C2874.3 671.2 2875.5 674.533 2877.9 676C2880.44 677.333 2883.57 678 2887.3 678C2889.97 678 2892.64 677.6 2895.3 676.8C2895.84 676.667 2896.37 676.533 2896.9 676.4C2897.57 676.267 2898.37 676.2 2899.3 676.2C2901.17 676.2 2902.84 676.933 2904.3 678.4C2905.77 679.733 2906.5 681.4 2906.5 683.4C2906.5 686.467 2904.97 688.8 2901.9 690.4C2896.7 692.8 2891.17 694 2885.3 694ZM2935.07 569.2C2932.27 569.2 2929.87 568.2 2927.87 566.2C2925.87 564.2 2924.87 561.8 2924.87 559V558.2C2924.87 555.4 2925.87 553 2927.87 551C2929.87 549 2932.27 548 2935.07 548H2936.27C2939.07 548 2941.47 549 2943.47 551C2945.47 553 2946.47 555.4 2946.47 558.2V559C2946.47 561.8 2945.47 564.2 2943.47 566.2C2941.47 568.2 2939.07 569.2 2936.27 569.2H2935.07ZM2935.47 693C2932.94 693 2930.81 692.133 2929.07 690.4C2927.34 688.667 2926.47 686.533 2926.47 684V598.2C2926.47 595.667 2927.34 593.533 2929.07 591.8C2930.81 589.933 2932.94 589 2935.47 589C2938.14 589 2940.34 589.867 2942.07 591.6C2943.81 593.333 2944.67 595.533 2944.67 598.2V684C2944.67 686.533 2943.74 688.667 2941.87 690.4C2940.14 692.133 2938.01 693 2935.47 693ZM2985.28 693C2982.74 693 2980.61 692.133 2978.88 690.4C2977.14 688.667 2976.28 686.533 2976.28 684V598.2C2976.28 595.667 2977.14 593.533 2978.88 591.8C2980.61 589.933 2982.74 589 2985.28 589C2987.81 589 2989.94 589.933 2991.68 591.8C2993.54 593.533 2994.48 595.667 2994.48 598.2V606.4C2999.54 600.8 3005.01 596.333 3010.88 593C3016.74 589.667 3023.68 588 3031.68 588C3039.01 588 3045.34 589.733 3050.68 593.2C3056.14 596.667 3060.28 601.4 3063.08 607.4C3066.01 613.4 3067.48 620 3067.48 627.2V684C3067.48 686.533 3066.54 688.667 3064.68 690.4C3062.94 692.133 3060.81 693 3058.28 693C3055.74 693 3053.61 692.133 3051.88 690.4C3050.14 688.667 3049.28 686.533 3049.28 684V629.2C3049.28 612.933 3041.94 604.8 3027.28 604.8C3020.61 604.8 3014.61 606.533 3009.28 610C3004.08 613.467 2999.14 618.133 2994.48 624V684C2994.48 686.533 2993.54 688.667 2991.68 690.4C2989.94 692.133 2987.81 693 2985.28 693ZM3145.75 740C3138.02 740 3130.22 739 3122.35 737C3114.48 735 3108.02 732.533 3102.95 729.6C3100.55 728.133 3099.35 725.8 3099.35 722.6C3099.35 720.467 3100.08 718.533 3101.55 716.8C3103.15 715.2 3105.08 714.4 3107.35 714.4C3108.42 714.4 3109.62 714.667 3110.95 715.2C3121.08 720.267 3132.08 722.8 3143.95 722.8C3164.35 722.8 3174.55 711.933 3174.55 690.2V676.8C3165.08 686.933 3153.68 692 3140.35 692C3132.48 692 3124.82 690.067 3117.35 686.2C3110.02 682.2 3103.95 676.333 3099.15 668.6C3094.35 660.733 3091.95 651.2 3091.95 640C3091.95 628.8 3094.35 619.333 3099.15 611.6C3103.95 603.733 3110.02 597.867 3117.35 594C3124.82 590 3132.48 588 3140.35 588C3153.68 588 3165.08 593.067 3174.55 603.2V598.2C3174.55 595.667 3175.42 593.533 3177.15 591.8C3178.88 589.933 3181.02 589 3183.55 589C3186.08 589 3188.22 589.933 3189.95 591.8C3191.82 593.533 3192.75 595.667 3192.75 598.2V687.6C3192.75 704.4 3188.68 717.333 3180.55 726.4C3172.42 735.467 3160.82 740 3145.75 740ZM3144.15 675.4C3150.42 675.4 3155.95 674.067 3160.75 671.4C3165.55 668.733 3170.15 665.133 3174.55 660.6V619.4C3170.15 614.867 3165.55 611.267 3160.75 608.6C3155.95 605.933 3150.42 604.6 3144.15 604.6C3134.15 604.6 3125.95 607.667 3119.55 613.8C3113.28 619.8 3110.15 628.533 3110.15 640C3110.15 651.467 3113.28 660.267 3119.55 666.4C3125.95 672.4 3134.15 675.4 3144.15 675.4Z" fill="#9B55E1"/>
</svg>
