<?xml version="1.0" encoding="UTF-8" standalone="no"?>
<svg width="472px" height="83px" viewBox="0 0 472 83" version="1.1" xmlns="http://www.w3.org/2000/svg" xmlns:xlink="http://www.w3.org/1999/xlink">
    <!-- Generator: Sketch 48.2 (47327) - http://www.bohemiancoding.com/sketch -->
    <title>publicplan_logo_neu-2017_ohne-claim_cmyk (1)</title>
    <desc>Created with Sketch.</desc>
    <defs></defs>
    <g id="Page-1" stroke="none" stroke-width="1" fill="none" fill-rule="evenodd">
        <g id="publicplan_logo_neu-2017_ohne-claim_cmyk-(1)" fill-rule="nonzero">
            <g id="Group" fill="#838E98">
                <path d="M118,18.9 C122.9,18.9 127.6,18.9 132.5,18.9 C148.8,18.9 150.8,21.3 150.8,37.5 C150.8,37.5 150.8,47.1 150.8,51.9 C150.8,58.8 146.1,63.5 139.3,63.5 L122,63.5 C111.3,63.5 106.7,58.9 106.7,51.9 L106.7,0.3 L118,0.3 L118,18.9 Z M139.3,30.4 L118,30.4 L118,51.8 L139.3,51.8 L139.3,30.4 Z" id="Shape"></path>
                <path d="M12.2,82.1 L0.8,82.1 L0.8,19 L33.5,19 C45.3,19 45.1,28.7 45.1,37.6 C45.1,42.4 45,47.2 45,52 C45,58.9 40.4,63.5 33.5,63.6 L12.2,63.6 L12.2,82.1 Z M33.5,30.4 L12.2,30.4 L12.2,51.8 L33.5,51.8 L33.5,30.4 Z" id="Shape"></path>
                <path d="M65.2,51.9 L86.5,51.9 L86.5,19 L98,19 L98,63.5 L65.2,63.5 C53.8,63.5 53.8,51.9 53.8,41.2 C53.8,33.9 53.8,26.4 53.8,19 L65.2,19 L65.2,51.9 Z" id="Shape"></path>
                <polygon id="Shape" points="170.8 63.4 159.4 63.4 159.4 0.2 170.8 0.2"></polygon>
                <rect id="Rectangle-path" x="179.5" y="0.2" width="11.4" height="11.3"></rect>
                <rect id="Rectangle-path" x="179.5" y="18.9" width="11.4" height="44.4"></rect>
                <path d="M211.2,63.4 C198.8,63.4 199.7,53.7 199.7,44.8 L199.7,30.5 C199.7,23.6 204.3,18.9 211.2,18.9 L244,18.9 L244,30.4 L211.2,30.4 L211.2,51.8 L244,51.8 L244,63.3 L211.2,63.3 L211.2,63.4 Z" id="Shape"></path>
            </g>
            <rect id="Rectangle-path" fill="#034573" x="255.5" y="0.2" width="192.5" height="81.9"></rect>
            <g id="Group" transform="translate(267.000000, 0.000000)" fill="#FFFFFF">
                <path d="M11.5,83 L0.1,83 L0.1,19 L32.8,19 C44.6,19 44.4,28.7 44.4,37.6 C44.4,42.4 44.4,47.2 44.4,52 C44.4,58.9 39.7,63.5 32.8,63.5 L11.5,63.5 L11.5,83 Z M32.8,30.4 L11.5,30.4 L11.5,51.9 L32.8,51.9 L32.8,30.4 Z" id="Shape"></path>
                <polygon id="Shape" points="64.4 63.4 53 63.4 53 0.3 64.4 0.3"></polygon>
                <path d="M84.1,35.8 L105.4,35.8 L105.4,29.5 L76.7,29.5 L76.7,19 L105.4,19 C118.7,19 117,31.9 117,41.3 C117,41.3 117,56.1 117,63.4 L84.1,63.4 C76,63.4 72.7,58.1 72.7,50.5 C72.7,42.5 74.8,35.8 84.1,35.8 Z M105.4,45.3 L84.1,45.3 L84.1,53.9 L105.4,53.9 L105.4,45.3 Z" id="Shape"></path>
                <path d="M157.9,30.4 L136.6,30.4 L136.6,63.3 L125.2,63.3 L125.2,19 L157.9,19 C171.2,19 169.5,31.9 169.5,41.3 C169.5,41.3 169.5,56.1 169.5,63.4 L157.9,63.4 L157.9,30.4 Z" id="Shape"></path>
            </g>
            <rect id="Rectangle-path" fill="#838E98" x="459.5" y="51.9" width="11.6" height="11.5"></rect>
        </g>
    </g>
</svg>